<svg viewBox="25.608 1.3575757575757577 142.008 30.64242424242424" version="1.1" xmlns="http://www.w3.org/2000/svg" id="Layer_1" style="max-height: 500px" width="142.008" height="30.64242424242424">
  
  <defs>
    <style>
      .st0 {
        fill-rule: evenodd;
      }

      .st0, .st1 {
        fill: #fff;
      }
    </style>
  </defs>
  <g>
    <path d="M40,1.98c-7.24.33-13.13,6.18-13.51,13.41-.32,5.94,3.02,11.13,7.96,13.55,1.84.9,4.03-.23,4.39-2.25h0c.24-1.36-.45-2.71-1.69-3.31-2.81-1.38-4.7-4.35-4.47-7.74.26-3.97,3.47-7.18,7.43-7.46,4.69-.32,8.59,3.38,8.59,8,0,3.17-1.84,5.91-4.51,7.21-1.22.59-1.89,1.94-1.65,3.27,0,.02,0,.05.01.07.35,1.98,2.5,3.12,4.31,2.24,4.75-2.3,8.02-7.16,8.02-12.79,0-8.07-6.73-14.57-14.88-14.19Z" class="st0"/>
    <path d="M40.69,21.17c-2.76,0-5-2.24-5-5s2.24-5,5-5,5,2.24,5,5-2.24,5-5,5Z" class="st0"/>
  </g>
  <g>
    <path d="M90.9,6.81c-4.7,0-8.51,3.81-8.51,8.51s3.81,8.51,8.51,8.51,8.51-3.81,8.51-8.51-3.81-8.51-8.51-8.51ZM90.9,20.01c-2.59,0-4.69-2.1-4.69-4.69s2.1-4.69,4.69-4.69,4.69,2.1,4.69,4.69-2.1,4.69-4.69,4.69Z" class="st0"/>
    <path d="M79.93,7.1h-3.41c-.17,0-.31.14-.31.31v.41h0v.67c-.61-.7-1.57-1.09-1.95-1.23-.99-.33-2.07-.49-3.19-.43-4.35.24-7.86,3.79-8.05,8.15-.21,4.89,3.69,8.92,8.53,8.92.95,0,1.86-.16,2.72-.44.39-.14,1.34-.53,1.94-1.22v.67h0v.16c0,1.44-.5,2.62-1.45,3.41-.82.69-1.98,1.06-3.26,1.06h0c-1.85,0-3.63-.76-4.67-1.97-.12-.13-.32-.15-.45-.02l-2.26,2.2c-.12.12-.13.31,0,.43,1.92,1.97,4.43,2.98,7.44,3h.96c4.26,0,7.7-3.45,7.7-7.7v-1.5s0-.02,0-.03l.02-14.54c0-.17-.14-.31-.31-.31ZM76.21,15.42c-.03,2.55-2.1,4.61-4.66,4.61s-4.66-2.08-4.66-4.66,2.08-4.66,4.66-4.66,4.63,2.06,4.66,4.61v.1Z" class="st0"/>
    <path d="M141.01,23.61h-3.46c-.17,0-.31-.14-.31-.31V7.39c0-.17.14-.31.31-.31h3.18c.17,0,.31.14.31.31v1.91l.52-.63.04-.04c1.19-1.22,2.77-1.83,4.7-1.83.72,0,1.43.1,2.23.31.09.02.15.11.13.21l-.77,3.3c-.02.08-.09.13-.17.13-.01,0-.03,0-.04,0-.71-.17-1.27-.24-2.04-.24-2.79,0-4.32,1.92-4.32,5.4v7.42c0,.17-.14.31-.31.31Z" class="st1"/>
    <path d="M113.96,17.94c-.94,1.4-2.6,2.27-4.46,2.06-2.16-.25-3.89-1.98-4.13-4.14-.31-2.84,1.9-5.24,4.68-5.24,1.65,0,3.09.85,3.93,2.12.09.13.27.18.41.1l2.8-1.62c.15-.09.2-.29.11-.44-1.59-2.53-4.47-4.18-7.71-4-4.36.23-7.88,3.78-8.08,8.13-.23,4.91,3.69,8.96,8.55,8.96,3.04,0,5.71-1.59,7.23-3.98.09-.15.05-.35-.11-.44l-2.8-1.62c-.14-.08-.32-.04-.41.09Z" class="st1"/>
    <path d="M126.97,6.81c-4.7,0-8.51,3.81-8.51,8.51s3.81,8.51,8.51,8.51,8.51-3.81,8.51-8.51-3.81-8.51-8.51-8.51ZM126.97,20.01c-2.59,0-4.69-2.1-4.69-4.69s2.1-4.69,4.69-4.69,4.69,2.1,4.69,4.69-2.1,4.69-4.69,4.69Z" class="st0"/>
    <path d="M159.01,6.78c-1.73,0-3.34.49-4.69,1.37v-.74c0-.17-.14-.31-.31-.31h-3.37c-.17,0-.31.14-.31.31v22.91c0,.17.14.31.31.31h3.38c.17,0,.31-.14.31-.31v-7.77c1.33.86,2.93,1.37,4.64,1.37,4.77,0,8.63-3.9,8.57-8.69-.07-4.64-3.88-8.42-8.52-8.44ZM159.18,20.01c-2.46.11-4.52-1.68-4.84-4.02-.01-.09-.02-.19-.02-.28v-.72c0-.1,0-.19.02-.29.32-2.27,2.27-4.02,4.62-4.02,2.68,0,4.83,2.26,4.66,4.97-.15,2.36-2.09,4.26-4.44,4.36Z" class="st0"/>
  </g>
</svg>