<svg viewBox="16.296 1.5515151515151515 162.378 28.8969696969697" version="1.1" xmlns="http://www.w3.org/2000/svg" id="Layer_1" style="max-height: 500px" width="162.378" height="28.8969696969697">
  
  <defs>
    <style>
      .st0 {
        fill-rule: evenodd;
      }

      .st0, .st1 {
        fill: #fff;
      }
    </style>
  </defs>
  <g>
    <path d="M30.52,1.98c-7.08.33-12.84,6.04-13.22,13.12-.31,5.81,2.95,10.89,7.78,13.25,1.8.88,3.95-.23,4.29-2.2h0c.23-1.33-.44-2.65-1.65-3.24-2.75-1.35-4.59-4.26-4.38-7.58.25-3.88,3.39-7.03,7.27-7.3,4.59-.32,8.4,3.31,8.4,7.83,0,3.1-1.8,5.78-4.41,7.05-1.19.58-1.85,1.89-1.62,3.2,0,.02,0,.04.01.07.34,1.94,2.45,3.05,4.22,2.19,4.64-2.25,7.85-7,7.85-12.51,0-7.89-6.58-14.25-14.56-13.88Z" class="st0"/>
    <path d="M31.19,20.75c-2.7,0-4.89-2.19-4.89-4.89s2.2-4.89,4.89-4.89,4.89,2.2,4.89,4.89-2.19,4.89-4.89,4.89Z" class="st0"/>
  </g>
  <g>
    <path d="M68.59,7.54c.16,0,.29.13.29.29v13.47s-.02.02-.02.03v1.39c0,3.94-3.19,7.13-7.13,7.13h-.89c-2.79-.02-5.11-.95-6.89-2.78-.11-.11-.1-.29,0-.4l2.09-2.04c.12-.12.31-.11.42.02.97,1.12,2.61,1.82,4.33,1.82h0c1.18,0,2.25-.35,3.02-.98.88-.73,1.35-1.82,1.35-3.16v-.76c-.56.64-1.44,1.01-1.8,1.13-.79.27-1.64.41-2.52.41-4.49,0-8.1-3.73-7.9-8.26.18-4.03,3.42-7.32,7.45-7.54,1.04-.06,2.03.09,2.95.39.35.12,1.24.48,1.81,1.14v-.62h0v-.39c0-.16.13-.29.29-.29h3.16ZM65.15,15.15c-.02-2.36-1.94-4.27-4.31-4.27s-4.31,1.93-4.31,4.31,1.93,4.31,4.31,4.31,4.29-1.91,4.31-4.27v-.09Z" class="st1"/>
    <path d="M87.11,15.39c0,4.35-3.53,7.88-7.88,7.88s-7.88-3.53-7.88-7.88,3.53-7.88,7.88-7.88,7.88,3.53,7.88,7.88ZM83.56,15.39c0-2.4-1.94-4.34-4.34-4.34s-4.34,1.94-4.34,4.34,1.94,4.34,4.34,4.34,4.34-1.94,4.34-4.34Z" class="st1"/>
    <path d="M96.88,10.69c0,.16-.13.29-.29.29h-3.48v6.86c.01.94.77,1.7,1.71,1.7h1.75c.16,0,.29.13.29.29v2.88c0,.16-.13.29-.29.29h-2.1c-2.83,0-5.12-2.29-5.12-5.12V3.39c0-.16.13-.29.29-.29h3.17c.16,0,.29.13.29.29v4.3h3.51c.16,0,.29.13.29.29v2.72h0Z" class="st1"/>
    <path d="M110.02,7.86l-.71,3.05c-.02.07-.08.12-.15.12-.01,0-.03,0-.04,0-.66-.16-1.17-.22-1.89-.22-2.58,0-4,1.77-4,5v6.87c0,.16-.13.29-.29.29h-3.2c-.16,0-.29-.13-.29-.29V7.94c0-.16.13-.29.29-.29h2.94c.16,0,.29.13.29.29v1.77l.48-.58.04-.04c1.1-1.13,2.56-1.7,4.36-1.7.67,0,1.32.09,2.06.29.09.02.14.11.12.19Z" class="st1"/>
    <path d="M118.84,7.42c4.37,0,7.08,2.23,7.08,5.87v9.41c0,.16-.13.29-.29.29h-3.18c-.16,0-.29-.13-.29-.29v-1.62l-.06.09c-.9,1.27-2.82,2.06-5.05,2.06-3.33,0-5.58-1.8-5.58-4.46s1.8-4.23,6.57-4.88c2.79-.39,3.55-.79,3.55-1.52,0-.99-1.04-1.58-2.65-1.58-1.82,0-3.2.94-3.66,2.43-.04.14-.19.23-.33.2l-3.4-.7c-.16-.03-.26-.19-.22-.35.72-2.94,3.73-4.92,7.49-4.92h0ZM122.08,15.28l-.06.09c-.38.56-1.2.88-3.32,1.26-2.55.47-3.46.97-3.46,1.88s.76,1.35,2.41,1.35c2.52,0,4.43-1.14,4.43-2.64v-1.94Z" class="st1"/>
    <path d="M143.52,14.86v.11s0,0,0,0v7.7c0,.16-.13.29-.29.29h-3.08c-.16,0-.29-.13-.29-.29v-8.09h0c-.1-2.01-1.78-3.62-3.81-3.62s-3.71,1.61-3.81,3.62h0v.14s0,7.95,0,7.95c0,.16-.13.29-.29.29h-3.08c-.16,0-.29-.13-.29-.29v-7.8c0-4.13,3.35-7.49,7.47-7.49s7.47,3.35,7.47,7.47h0Z" class="st1"/>
    <path d="M153.57,13.65c4.63.8,6.43,2.17,6.43,4.87s-2.74,4.64-6.81,4.64-6.8-1.89-7.59-4.96c-.04-.15.05-.31.2-.35l2.99-.78c.14-.04.29.04.34.18.6,1.75,1.97,2.63,4.08,2.63s3.16-.49,3.16-1.34-.83-1.3-3.41-1.73c-4.93-.84-6.77-2.15-6.77-4.84s2.52-4.61,6.27-4.61c3.32,0,6.26,1.75,7.15,4.2.05.15-.03.32-.18.37l-2.9.97c-.13.04-.29-.02-.35-.15-.6-1.31-2.01-2.11-3.75-2.11-1.61,0-2.64.52-2.64,1.34s.78,1.14,3.77,1.68h0Z" class="st1"/>
    <path d="M162.8,22.96c-.16,0-.29-.13-.29-.29V7.94c0-.16.13-.29.29-.29h3.14c.16,0,.29.13.29.29v14.73c0,.16-.13.29-.29.29h-3.14Z" class="st1"/>
    <path d="M176.72,10.69c0,.16-.13.29-.29.29h-3.48v6.86c.01.94.77,1.7,1.71,1.7h1.75c.16,0,.29.13.29.29v2.88c0,.16-.13.29-.29.29h-2.1c-2.83,0-5.12-2.29-5.12-5.12V3.39c0-.16.13-.29.29-.29h3.17c.16,0,.29.13.29.29v4.3h3.51c.16,0,.29.13.29.29v2.72h0Z" class="st1"/>
  </g>
</svg>