<svg width="20" height="20" viewBox="0 0 512 512" fill="none" xmlns="http://www.w3.org/2000/svg">
<path d="M486 392.599C486 443.97 443.97 486 392.599 486H119.401C68.03 486 26 443.97 26 392.599V119.401C26 68.031 68.03 26 119.401 26H392.599C443.97 26 486 68.031 486 119.401V392.599Z" fill="white"/>
<path d="M290.425 233.064L401.075 95.1543H369.025L274.405 213.094L179.775 95.1543H74.125L221.575 278.934L110.915 416.854H142.965L237.595 298.904L332.235 416.854H437.885L290.425 233.064ZM126.225 120.153H167.775L385.775 391.853H344.225L126.225 120.153Z" fill="#1A1A1A"/>
</svg>
